#!OML:ASF E:\motion texture\Top Level 1\Subject 1\Session 1\male.ASF
:FULLY-SPECIFIED
:DEGREES
439
root -6.28755 17.9283 4.11492 860.803 -72.3687 -855.485
lowerback 2.24746 3.98627 9.77072
upperback -1.96237 5.62625 3.90589
thorax -2.76514 2.56516 -1.60708
lowerneck -20.8847 -4.32886 -6.14428
upperneck 14.1998 -5.53217 7.4464
head 8.2139 -2.21407 2.77691
rclavicle -1.39553e-014 -2.25621e-014
rhumerus -6.21076 18.3776 -84.3471
rradius 72.1897
rwrist -8.49686
rhand -12.4341 -12.0884
rfingers 7.12502
rthumb 13.6386 -41.6216
lclavicle -1.39553e-014 -2.25621e-014
lhumerus -62.7341 -6.24705 80.1146
lradius 42.2163
lwrist -1.50827
lhand -5.78161 11.7174
lfingers 7.12502
lthumb 20.0423 40.7037
rfemur 8.9851 7.41527 37.0406
rtibia 19.3137
rfoot 709.505 3.82062
rtoes 4.28979
lfemur -74.7564 9.90029 -8.92654
ltibia 78.9914
lfoot 1101.24 0.7332
ltoes -1.51958
440
root -6.47159 17.8963 4.11056 861.791 -72.2419 -856.239
lowerback 1.80918 4.02179 9.73525
upperback -2.05813 5.61955 3.84097
thorax -2.61527 2.56637 -1.6245
lowerneck -20.773 -4.2427 -6.08211
upperneck 14.2838 -5.43702 7.40609
head 8.21314 -2.17159 2.76767
rclavicle 1.69588e-014 9.24349e-015
rhumerus -7.21535 18.4396 -84.8757
rradius 71.0053
rwrist -8.37169
rhand -12.2877 -12.1451
rfingers 7.12502
rthumb 13.7797 -41.6687
lclavicle 1.69588e-014 9.24349e-015
lhumerus -62.0481 -6.09292 80.4325
lradius 42.2132
lwrist -1.32761
lhand -5.96668 11.8381
lfingers 7.12502
lthumb 19.8644 40.8429
rfemur 9.37625 7.51682 36.7779
rtibia 19.3076
rfoot 709.531 4.06717
rtoes 3.65085
lfemur -72.0124 10.2555 -8.92958
ltibia 75.8598
lfoot 1102.01 0.603441
ltoes -0.696838
441
root -6.66169 17.863 4.10622 862.779 -72.1281 -857.002
lowerback 1.34099 4.05284 9.6881
upperback -2.16639 5.60377 3.77268
thorax -2.46327 2.56286 -1.63712
lowerneck -20.636 -4.14952 -6.00814
upperneck 14.388 -5.33726 7.35962
head 8.21408 -2.12732 2.75529
rclavicle -1.45579e-014 -9.14409e-015
rhumerus -8.32616 18.4628 -85.4273
rradius 69.7832
rwrist -8.23032
rhand -12.091 -12.2122
rfingers 7.12502
rthumb 13.9693 -41.7229
lclavicle -1.45579e-014 -9.14409e-015
lhumerus -61.3457 -5.9524 80.8057
lradius 42.1834
lwrist -1.13456
lhand -6.20788 11.9792
lfingers 7.12502
lthumb 19.6325 41.0079
rfemur 9.76885 7.59276 36.4818
rtibia 19.3369
rfoot 709.617 4.33359
rtoes 3.01598
lfemur -69.1396 10.5678 -8.93076
ltibia 72.6659
lfoot 1102.64 0.92946
ltoes 0.142137
442
root -6.85821 17.8288 4.102 863.753 -72.0201 -857.76
lowerback 0.838357 4.08003 9.63692
upperback -2.2856 5.57906 3.7039
thorax -2.30459 2.55464 -1.64579
lowerneck -20.4775 -4.0482 -5.91986
upperneck 14.5137 -5.23174 7.30643
head 8.21763 -2.08053 2.73929
rclavicle -7.70912e-015 -2.5842e-015
rhumerus -9.53255 18.4477 -85.994
rradius 68.5161
rwrist -8.07555
rhand -11.8474 -12.2775
rfingers 7.12502
rthumb 14.2041 -41.7718
lclavicle -7.70912e-015 -2.5842e-015
lhumerus -60.6254 -5.82146 81.2321
lradius 42.1308
lwrist -0.957688
lhand -6.49095 12.1018
lfingers 7.12502
lthumb 19.3603 41.158
rfemur 10.1462 7.6403 36.1545
rtibia 19.4285
rfoot 709.769 4.63361
rtoes 2.38091
lfemur -66.1391 10.8191 -8.90755
ltibia 69.4159
lfoot 1103.14 1.43834
ltoes 0.874873
443
root -7.06173 17.7937 4.09818 864.705 -71.921 -858.514
lowerback 0.305745 4.10259 9.58278
upperback -2.41513 5.545 3.63405
thorax -2.141 2.54137 -1.65222
lowerneck -20.2933 -3.93823 -5.81348
upperneck 14.6617 -5.12111 7.24666
head 8.22335 -2.03142 2.71901
rclavicle 1.57086e-015 2.29596e-014
rhumerus -10.8401 18.3881 -86.5728
rradius 67.2047
rwrist -7.91055
rhand -11.5839 -12.36
rfingers 7.12502
rthumb 14.458 -41.8364
lclavicle 1.57086e-015 2.29596e-014
lhumerus -59.8847 -5.70822 81.7162
lradius 42.0531
lwrist -0.807215
lhand -6.81145 12.213
lfingers 7.12502
lthumb 19.0522 41.2999
rfemur 10.5008 7.65092 35.7868
rtibia 19.6085
rfoot 710.004 4.98101
rtoes 1.75692
lfemur -63.0015 10.9769 -8.84804
ltibia 66.1197
lfoot 1103.24 1.923
ltoes 0.659986
444
root -7.27248 17.7578 4.09492 865.634 -71.8299 -859.265
lowerback -0.262846 4.12123 9.52702
upperback -2.55039 5.50134 3.56494
thorax -1.96445 2.52326 -1.6548
lowerneck -20.0862 -3.82161 -5.69713
upperneck 14.83 -5.00668 7.18694
head 8.23156 -1.98035 2.69779
rclavicle -4.20784e-014 -6.49032e-014
rhumerus -12.2309 18.2935 -87.1485
rradius 65.8333
rwrist -7.74027
rhand -11.3149 -12.4475
rfingers 7.12502
rthumb 14.7171 -41.9051
lclavicle -4.20784e-014 -6.49032e-014
lhumerus -59.1134 -5.6075 82.257
lradius 41.9514
lwrist -0.698661
lhand -7.16003 12.2913
lfingers 7.12502
lthumb 18.7169 41.4108
rfemur 10.8096 7.61579 35.3688
rtibia 19.9164
rfoot 710.339 5.39354
rtoes 1.15768
lfemur -59.7389 11.0239 -8.75431
ltibia 62.836
lfoot 1102.67 2.16976
ltoes -0.473535
445
root -7.49091 17.7212 4.09291 866.533 -71.7465 -860.015
lowerback -0.858413 4.13405 9.4777
upperback -2.6877 5.44646 3.49679
thorax -1.77573 2.49935 -1.65848
lowerneck -19.8661 -3.6988 -5.57574
upperneck 15.0256 -4.88849 7.13208
head 8.24653 -1.92688 2.67803
rclavicle 2.34741e-014 6.11263e-014
rhumerus -13.6983 18.1719 -87.7128
rradius 64.3942
rwrist -7.55932
rhand -11.0731 -12.5255
rfingers 7.12502
rthumb 14.9501 -41.9659
lclavicle 2.34741e-014 6.11263e-014
lhumerus -58.3077 -5.51943 82.8551
lradius 41.8351
lwrist -0.625484
lhand -7.51893 12.346
lfingers 7.12502
lthumb 18.3717 41.4984
rfemur 11.0545 7.51332 34.8829
rtibia 20.3925
rfoot 710.801 5.89454
rtoes 0.594023
lfemur -56.3756 10.946 -8.64678
ltibia 59.649
lfoot 1101.22 2.10081
ltoes -2.48525
446
root -7.71604 17.6839 4.09257 867.409 -71.6737 -860.772
lowerback -1.46891 4.14152 9.43371
upperback -2.83063 5.38277 3.4293
thorax -1.58527 2.4703 -1.66428
lowerneck -19.6325 -3.57258 -5.45421
upperneck 15.2503 -4.76905 7.08195
head 8.26909 -1.87252 2.66014
rclavicle 4.51925e-014 -4.72114e-015
rhumerus -15.2361 18.0252 -88.2543
rradius 62.8811
rwrist -7.37228
rhand -10.8916 -12.5694
rfingers 7.12502
rthumb 15.1249 -41.9968
lclavicle 4.51925e-014 -4.72114e-015
lhumerus -57.4612 -5.44992 83.5147
lradius 41.7085
lwrist -0.572479
lhand -7.88535 12.3804
lfingers 7.12502
lthumb 18.0191 41.5657
rfemur 11.1939 7.33385 34.3144
rtibia 21.0963
rfoot 711.424 6.48916
rtoes 0.130825
lfemur -52.9712 10.7395 -8.56173
ltibia 56.6197
lfoot 1098.8 1.71978
ltoes -5.21739
447
root -7.94607 17.6458 4.09454 868.264 -71.6259 -861.531
lowerback -2.08549 4.14003 9.38972
upperback -2.97911 5.30672 3.36097
thorax -1.39871 2.43428 -1.67193
lowerneck -19.402 -3.44501 -5.3313
upperneck 15.5122 -4.64991 7.03008
head 8.30474 -1.81817 2.6415
rclavicle -1.82463e-014 2.67862e-014
rhumerus -16.8363 17.8604 -88.7563
rradius 61.3023
rwrist -7.17445
rhand -10.7235 -12.6166
rfingers 7.12502
rthumb 15.2868 -42.0317
lclavicle -1.82463e-014 2.67862e-014
lhumerus -56.5642 -5.40576 84.2401
lradius 41.5871
lwrist -0.510287
lhand -8.27174 12.4006
lfingers 7.12502
lthumb 17.6474 41.6198
rfemur 11.1776 7.05917 33.6433
rtibia 22.0811
rfoot 712.271 7.17828
rtoes -0.179296
lfemur -49.6117 10.4118 -8.54709
ltibia 53.758
lfoot 1095.48 1.16876
ltoes -8.03317
448
root -8.17824 17.6079 4.09917 869.12 -71.65 -862.325
lowerback -2.66944 4.11176 9.30845
upperback -3.13568 5.20136 3.28572
thorax -1.2445 2.38272 -1.67153
lowerneck -19.1915 -3.31827 -5.21269
upperneck 15.8239 -4.53211 6.97456
head 8.36079 -1.76443 2.62226
rclavicle 9.24504e-015 -3.10601e-014
rhumerus -18.4899 17.6704 -89.214
rradius 59.6644
rwrist -6.95588
rhand -10.5836 -12.6541
rfingers 7.12502
rthumb 15.4216 -42.0588
lclavicle 9.24504e-015 -3.10601e-014
lhumerus -55.602 -5.38107 85.0282
lradius 41.477
lwrist -0.405351
lhand -8.68168 12.4337
lfingers 7.12502
lthumb 17.2528 41.6878
rfemur 10.968 6.66809 32.8323
rtibia 23.3879
rfoot 713.416 7.92235
rtoes -0.241047
lfemur -46.3878 9.98415 -8.69448
ltibia 51.0877
lfoot 1091.55 0.660583
ltoes -10.3511
449
root -8.40925 17.5716 4.1064 870.035 -71.7796 -863.229
lowerback -3.18486 4.04739 9.14364
upperback -3.29234 5.06111 3.19633
thorax -1.1376 2.31395 -1.64846
lowerneck -19.0198 -3.19432 -5.09428
upperneck 16.1833 -4.41688 6.90745
head 8.43978 -1.71208 2.59885
rclavicle 2.62768e-015 2.4699e-014
rhumerus -20.1742 17.4315 -89.612
rradius 57.973
rwrist -6.69253
rhand -10.4154 -12.6713
rfingers 7.12502
rthumb 15.5836 -42.0635
lclavicle 2.62768e-015 2.4699e-014
lhumerus -54.5551 -5.38976 85.8795
lradius 41.3937
lwrist -0.233725
lhand -9.13945 12.4746
lfingers 7.12502
lthumb 16.8122 41.7668
rfemur 10.5365 6.15934 31.8502
rtibia 25.052
rfoot 714.954 8.65231
rtoes -0.0210058
lfemur -43.3733 9.49353 -9.07877
ltibia 48.6446
lfoot 1087.41 0.391295
ltoes -11.7261
450
root -8.63462 17.5384 4.11583 871.057 -72.068 -864.298
lowerback -3.59597 3.93008 8.84008
upperback -3.44476 4.87135 3.08528
thorax -1.09754 2.22182 -1.58351
lowerneck -18.9039 -3.07868 -4.98457
upperneck 16.5776 -4.30909 6.83521
head 8.5413 -1.66304 2.57411
rclavicle -2.54351e-014 1.3418e-015
rhumerus -21.8557 17.1273 -89.929
rradius 56.2361
rwrist -6.37709
rhand -10.1981 -12.6899
rfingers 7.12502
rthumb 15.7929 -42.0657
lclavicle -2.54351e-014 1.3418e-015
lhumerus -53.3951 -5.4346 86.7876
lradius 41.3541
lwrist 0.0119715
lhand -9.64232 12.5553
lfingers 7.12502
lthumb 16.3281 41.8879
rfemur 9.84928 5.52822 30.6771
rtibia 27.0992
rfoot 716.944 9.28154
rtoes 0.544166
lfemur -40.6413 8.95478 -9.75438
ltibia 46.4317
lfoot 1083.51 0.441902
ltoes -11.8841
451
root -8.8508 17.5101 4.12685 872.202 -72.5472 -865.565
lowerback -3.8671 3.74863 8.368
upperback -3.58142 4.62282 2.94903
thorax -1.1331 2.10308 -1.46557
lowerneck -18.8544 -2.97826 -4.88997
upperneck 16.9854 -4.21597 6.76486
head 8.66094 -1.62031 2.55041
rclavicle 7.4948e-015 -3.62782e-015
rhumerus -23.5086 16.7153 -90.146
rradius 54.4641
rwrist -5.97605
rhand -9.92078 -12.6951
rfingers 7.12502
rthumb 16.0599 -42.0495
lclavicle 7.4948e-015 -3.62782e-015
lhumerus -52.0907 -5.52388 87.7417
lradius 41.3644
lwrist 0.306984
lhand -10.2016 12.6856
lfingers 7.12502
lthumb 15.7895 42.0616
rfemur 8.90381 4.78412 29.3288
rtibia 29.5435
rfoot 719.385 9.70931
rtoes 1.47541
lfemur -38.2189 8.36763 -10.7168
ltibia 44.4516
lfoot 1080.17 0.749867
ltoes -10.8518
